<svg id="visual" viewBox="0 0 3440 500" width="3440" height="500" xmlns="http://www.w3.org/2000/svg" xmlns:xlink="http://www.w3.org/1999/xlink" version="1.1"><path d="M0 336L156 336L156 333L313 333L313 381L469 381L469 395L625 395L625 361L782 361L782 352L938 352L938 437L1095 437L1095 359L1251 359L1251 355L1407 355L1407 427L1564 427L1564 332L1720 332L1720 377L1876 377L1876 360L2033 360L2033 354L2189 354L2189 382L2345 382L2345 423L2502 423L2502 346L2658 346L2658 356L2815 356L2815 362L2971 362L2971 353L3127 353L3127 432L3284 432L3284 321L3440 321L3440 373L3440 0L3440 0L3284 0L3284 0L3127 0L3127 0L2971 0L2971 0L2815 0L2815 0L2658 0L2658 0L2502 0L2502 0L2345 0L2345 0L2189 0L2189 0L2033 0L2033 0L1876 0L1876 0L1720 0L1720 0L1564 0L1564 0L1407 0L1407 0L1251 0L1251 0L1095 0L1095 0L938 0L938 0L782 0L782 0L625 0L625 0L469 0L469 0L313 0L313 0L156 0L156 0L0 0Z" fill="hsla(205,43%,43%,1)"></path><path d="M0 309L156 309L156 354L313 354L313 331L469 331L469 293L625 293L625 349L782 349L782 336L938 336L938 355L1095 355L1095 314L1251 314L1251 290L1407 290L1407 313L1564 313L1564 325L1720 325L1720 364L1876 364L1876 359L2033 359L2033 358L2189 358L2189 302L2345 302L2345 333L2502 333L2502 328L2658 328L2658 322L2815 322L2815 305L2971 305L2971 364L3127 364L3127 323L3284 323L3284 376L3440 376L3440 374L3440 0L3440 0L3284 0L3284 0L3127 0L3127 0L2971 0L2971 0L2815 0L2815 0L2658 0L2658 0L2502 0L2502 0L2345 0L2345 0L2189 0L2189 0L2033 0L2033 0L1876 0L1876 0L1720 0L1720 0L1564 0L1564 0L1407 0L1407 0L1251 0L1251 0L1095 0L1095 0L938 0L938 0L782 0L782 0L625 0L625 0L469 0L469 0L313 0L313 0L156 0L156 0L0 0Z" fill="hsla(206,44%,39%,1)"></path><path d="M0 288L156 288L156 308L313 308L313 264L469 264L469 265L625 265L625 240L782 240L782 281L938 281L938 290L1095 290L1095 290L1251 290L1251 249L1407 249L1407 324L1564 324L1564 293L1720 293L1720 240L1876 240L1876 292L2033 292L2033 237L2189 237L2189 294L2345 294L2345 239L2502 239L2502 279L2658 279L2658 229L2815 229L2815 229L2971 229L2971 256L3127 256L3127 260L3284 260L3284 240L3440 240L3440 282L3440 0L3440 0L3284 0L3284 0L3127 0L3127 0L2971 0L2971 0L2815 0L2815 0L2658 0L2658 0L2502 0L2502 0L2345 0L2345 0L2189 0L2189 0L2033 0L2033 0L1876 0L1876 0L1720 0L1720 0L1564 0L1564 0L1407 0L1407 0L1251 0L1251 0L1095 0L1095 0L938 0L938 0L782 0L782 0L625 0L625 0L469 0L469 0L313 0L313 0L156 0L156 0L0 0Z" fill="hsla(206,47%,35%,1)"></path><path d="M0 179L156 179L156 263L313 263L313 194L469 194L469 211L625 211L625 195L782 195L782 239L938 239L938 262L1095 262L1095 176L1251 176L1251 239L1407 239L1407 185L1564 185L1564 233L1720 233L1720 185L1876 185L1876 236L2033 236L2033 196L2189 196L2189 219L2345 219L2345 249L2502 249L2502 194L2658 194L2658 232L2815 232L2815 218L2971 218L2971 196L3127 196L3127 233L3284 233L3284 226L3440 226L3440 177L3440 0L3440 0L3284 0L3284 0L3127 0L3127 0L2971 0L2971 0L2815 0L2815 0L2658 0L2658 0L2502 0L2502 0L2345 0L2345 0L2189 0L2189 0L2033 0L2033 0L1876 0L1876 0L1720 0L1720 0L1564 0L1564 0L1407 0L1407 0L1251 0L1251 0L1095 0L1095 0L938 0L938 0L782 0L782 0L625 0L625 0L469 0L469 0L313 0L313 0L156 0L156 0L0 0Z" fill="hsla(205,49%,31%,1)"></path><path d="M0 183L156 183L156 182L313 182L313 142L469 142L469 188L625 188L625 147L782 147L782 175L938 175L938 138L1095 138L1095 189L1251 189L1251 135L1407 135L1407 193L1564 193L1564 186L1720 186L1720 199L1876 199L1876 205L2033 205L2033 161L2189 161L2189 208L2345 208L2345 147L2502 147L2502 182L2658 182L2658 196L2815 196L2815 158L2971 158L2971 156L3127 156L3127 141L3284 141L3284 193L3440 193L3440 156L3440 0L3440 0L3284 0L3284 0L3127 0L3127 0L2971 0L2971 0L2815 0L2815 0L2658 0L2658 0L2502 0L2502 0L2345 0L2345 0L2189 0L2189 0L2033 0L2033 0L1876 0L1876 0L1720 0L1720 0L1564 0L1564 0L1407 0L1407 0L1251 0L1251 0L1095 0L1095 0L938 0L938 0L782 0L782 0L625 0L625 0L469 0L469 0L313 0L313 0L156 0L156 0L0 0Z" fill="hsla(205,51%,27%,1)"></path><path d="M0 133L156 133L156 139L313 139L313 85L469 85L469 115L625 115L625 107L782 107L782 137L938 137L938 112L1095 112L1095 143L1251 143L1251 137L1407 137L1407 143L1564 143L1564 123L1720 123L1720 96L1876 96L1876 144L2033 144L2033 126L2189 126L2189 95L2345 95L2345 147L2502 147L2502 85L2658 85L2658 96L2815 96L2815 108L2971 108L2971 146L3127 146L3127 150L3284 150L3284 95L3440 95L3440 114L3440 0L3440 0L3284 0L3284 0L3127 0L3127 0L2971 0L2971 0L2815 0L2815 0L2658 0L2658 0L2502 0L2502 0L2345 0L2345 0L2189 0L2189 0L2033 0L2033 0L1876 0L1876 0L1720 0L1720 0L1564 0L1564 0L1407 0L1407 0L1251 0L1251 0L1095 0L1095 0L938 0L938 0L782 0L782 0L625 0L625 0L469 0L469 0L313 0L313 0L156 0L156 0L0 0Z" fill="hsla(205,55%,24%,1)"></path><path d="M0 85L156 85L156 69L313 69L313 49L469 49L469 36L625 36L625 64L782 64L782 84L938 84L938 74L1095 74L1095 70L1251 70L1251 42L1407 42L1407 59L1564 59L1564 51L1720 51L1720 63L1876 63L1876 42L2033 42L2033 81L2189 81L2189 77L2345 77L2345 84L2502 84L2502 40L2658 40L2658 77L2815 77L2815 77L2971 77L2971 63L3127 63L3127 36L3284 36L3284 62L3440 62L3440 40L3440 0L3440 0L3284 0L3284 0L3127 0L3127 0L2971 0L2971 0L2815 0L2815 0L2658 0L2658 0L2502 0L2502 0L2345 0L2345 0L2189 0L2189 0L2033 0L2033 0L1876 0L1876 0L1720 0L1720 0L1564 0L1564 0L1407 0L1407 0L1251 0L1251 0L1095 0L1095 0L938 0L938 0L782 0L782 0L625 0L625 0L469 0L469 0L313 0L313 0L156 0L156 0L0 0Z" fill="hsla(205,60%,20%,1)"></path></svg>