<svg id="visual" viewBox="0 0 1440 540" width="1440" height="540" xmlns="http://www.w3.org/2000/svg" xmlns:xlink="http://www.w3.org/1999/xlink" version="1.1"><path d="M0 465L72 465L72 465L144 465L144 467L216 467L216 450L288 450L288 453L360 453L360 458L432 458L432 450L504 450L504 447L576 447L576 460L648 460L648 448L720 448L720 456L792 456L792 462L864 462L864 463L936 463L936 447L1008 447L1008 451L1080 451L1080 462L1152 462L1152 449L1224 449L1224 462L1296 462L1296 466L1368 466L1368 467L1440 467L1440 447L1440 541L1440 541L1368 541L1368 541L1296 541L1296 541L1224 541L1224 541L1152 541L1152 541L1080 541L1080 541L1008 541L1008 541L936 541L936 541L864 541L864 541L792 541L792 541L720 541L720 541L648 541L648 541L576 541L576 541L504 541L504 541L432 541L432 541L360 541L360 541L288 541L288 541L216 541L216 541L144 541L144 541L72 541L72 541L0 541Z" fill="hsla(167,60%,29%,1)"></path><path d="M0 463L72 463L72 464L144 464L144 472L216 472L216 462L288 462L288 476L360 476L360 470L432 470L432 464L504 464L504 468L576 468L576 477L648 477L648 475L720 475L720 465L792 465L792 465L864 465L864 462L936 462L936 476L1008 476L1008 477L1080 477L1080 475L1152 475L1152 472L1224 472L1224 465L1296 465L1296 467L1368 467L1368 466L1440 466L1440 459L1440 541L1440 541L1368 541L1368 541L1296 541L1296 541L1224 541L1224 541L1152 541L1152 541L1080 541L1080 541L1008 541L1008 541L936 541L936 541L864 541L864 541L792 541L792 541L720 541L720 541L648 541L648 541L576 541L576 541L504 541L504 541L432 541L432 541L360 541L360 541L288 541L288 541L216 541L216 541L144 541L144 541L72 541L72 541L0 541Z" fill="hsla(174,60%,28%,1)"></path><path d="M0 471L72 471L72 481L144 481L144 475L216 475L216 475L288 475L288 472L360 472L360 477L432 477L432 482L504 482L504 480L576 480L576 472L648 472L648 485L720 485L720 486L792 486L792 477L864 477L864 475L936 475L936 484L1008 484L1008 482L1080 482L1080 484L1152 484L1152 473L1224 473L1224 488L1296 488L1296 488L1368 488L1368 479L1440 479L1440 478L1440 541L1440 541L1368 541L1368 541L1296 541L1296 541L1224 541L1224 541L1152 541L1152 541L1080 541L1080 541L1008 541L1008 541L936 541L936 541L864 541L864 541L792 541L792 541L720 541L720 541L648 541L648 541L576 541L576 541L504 541L504 541L432 541L432 541L360 541L360 541L288 541L288 541L216 541L216 541L144 541L144 541L72 541L72 541L0 541Z" fill="hsla(181,60%,27%,1)"></path><path d="M0 494L72 494L72 494L144 494L144 485L216 485L216 485L288 485L288 493L360 493L360 489L432 489L432 493L504 493L504 484L576 484L576 498L648 498L648 498L720 498L720 498L792 498L792 484L864 484L864 492L936 492L936 486L1008 486L1008 486L1080 486L1080 485L1152 485L1152 490L1224 490L1224 495L1296 495L1296 487L1368 487L1368 484L1440 484L1440 488L1440 541L1440 541L1368 541L1368 541L1296 541L1296 541L1224 541L1224 541L1152 541L1152 541L1080 541L1080 541L1008 541L1008 541L936 541L936 541L864 541L864 541L792 541L792 541L720 541L720 541L648 541L648 541L576 541L576 541L504 541L504 541L432 541L432 541L360 541L360 541L288 541L288 541L216 541L216 541L144 541L144 541L72 541L72 541L0 541Z" fill="hsla(186,60%,28%,1)"></path><path d="M0 504L72 504L72 508L144 508L144 500L216 500L216 507L288 507L288 497L360 497L360 509L432 509L432 507L504 507L504 507L576 507L576 508L648 508L648 498L720 498L720 506L792 506L792 504L864 504L864 508L936 508L936 506L1008 506L1008 507L1080 507L1080 498L1152 498L1152 500L1224 500L1224 497L1296 497L1296 507L1368 507L1368 498L1440 498L1440 507L1440 541L1440 541L1368 541L1368 541L1296 541L1296 541L1224 541L1224 541L1152 541L1152 541L1080 541L1080 541L1008 541L1008 541L936 541L936 541L864 541L864 541L792 541L792 541L720 541L720 541L648 541L648 541L576 541L576 541L504 541L504 541L432 541L432 541L360 541L360 541L288 541L288 541L216 541L216 541L144 541L144 541L72 541L72 541L0 541Z" fill="hsla(190,60%,29%,1)"></path><path d="M0 509L72 509L72 515L144 515L144 514L216 514L216 518L288 518L288 510L360 510L360 517L432 517L432 516L504 516L504 520L576 520L576 516L648 516L648 511L720 511L720 514L792 514L792 512L864 512L864 516L936 516L936 513L1008 513L1008 513L1080 513L1080 520L1152 520L1152 514L1224 514L1224 518L1296 518L1296 513L1368 513L1368 508L1440 508L1440 520L1440 541L1440 541L1368 541L1368 541L1296 541L1296 541L1224 541L1224 541L1152 541L1152 541L1080 541L1080 541L1008 541L1008 541L936 541L936 541L864 541L864 541L792 541L792 541L720 541L720 541L648 541L648 541L576 541L576 541L504 541L504 541L432 541L432 541L360 541L360 541L288 541L288 541L216 541L216 541L144 541L144 541L72 541L72 541L0 541Z" fill="hsla(193,60%,29%,1)"></path><path d="M0 528L72 528L72 523L144 523L144 521L216 521L216 526L288 526L288 520L360 520L360 522L432 522L432 529L504 529L504 529L576 529L576 526L648 526L648 526L720 526L720 521L792 521L792 528L864 528L864 525L936 525L936 529L1008 529L1008 523L1080 523L1080 528L1152 528L1152 525L1224 525L1224 529L1296 529L1296 521L1368 521L1368 521L1440 521L1440 528L1440 541L1440 541L1368 541L1368 541L1296 541L1296 541L1224 541L1224 541L1152 541L1152 541L1080 541L1080 541L1008 541L1008 541L936 541L936 541L864 541L864 541L792 541L792 541L720 541L720 541L648 541L648 541L576 541L576 541L504 541L504 541L432 541L432 541L360 541L360 541L288 541L288 541L216 541L216 541L144 541L144 541L72 541L72 541L0 541Z" fill="hsla(196,60%,29%,1)"></path></svg>