<svg version="1.1" id="Ebene_1" xmlns="http://www.w3.org/2000/svg" xmlns:xlink="http://www.w3.org/1999/xlink" x="0px" y="0px"
	 viewBox="0 0 245.9 248.3" style="enable-background:new 0 0 245.9 248.3;" xml:space="preserve">
		<path d="M123.1,248c-35.3,0-70.7,0-106,0c-3.3,0-6.6,0.2-10,0.3c-5.8,0.2-7.2-1.1-7.2-6.8c0.1-15.3,0.5-30.6,0.6-45.9
			c0.1-36.1,0.1-72.3,0.2-108.4c0-26.7,0-53.3,0.1-80C0.8,0.7,1.5,0,7.9,0c76.8,0,153.7,0,230.5,0.1c5.8,0,6.8,1.1,6.8,7.2
			c-0.1,45-0.3,90-0.3,134.9c0,28.7,0.2,57.3,0.4,86c0,4.5,0.6,9,0.7,13.4c0.1,5.4-1.3,6.7-6.8,6.7c-34.7-0.1-69.3-0.2-104-0.4
			C131.1,247.9,127.1,248,123.1,248z M10.9,172.6c0,19.3,0,38.7,0,58c0,6.5,1.6,7.9,8,7.9c31-0.1,62-0.1,93-0.1
			c7.3,0,9.4-2.3,9.2-9.7c-0.1-4.7-0.2-9.3-0.2-14c0-4.8,0.5-9.7,0.3-14.5c-0.1-3.2-0.9-6.2-5.5-6.1c-28,0.3-56,0.3-83.9,0.6
			c-5.9,0.1-7.6-1.3-7.6-7c0.2-13,0.5-26,0.7-38.9c0.1-6.7,0.9-7.5,7.4-7.5c26.8-0.2,53.6-0.5,80.4-0.7c6.9-0.1,8.3-1.4,8.6-8.5
			c0.2-6,0.4-12,0.6-18c0.2-5.4-2.1-7.6-7.9-7.6c-31.2,0-62.3,0-93.5,0c-8.7,0-9.7,0.9-9.8,9.7C10.9,135,10.9,153.8,10.9,172.6z
			 M234.6,179.3c-0.2,0-0.4,0-0.6,0c0-21.6,0-43.3,0-64.9c0-6.6-1.5-8-7.9-8c-22.5,0-45,0.1-67.5,0.1c-6,0-12-0.1-18,0
			c-6.4,0.1-7.6,1.3-7.7,7.6c-0.1,5.7,0,11.3,0,17c0,8.8,1.3,10.2,10,10.2c23.1-0.2,46.3-0.4,69.4-0.6c5.9,0,7.5,1.6,7.5,7.3
			c0.1,13,0.3,26,0.4,39c0.1,7.3-1.1,8-8.5,7.9c-24-0.3-48-0.4-71.9-0.6c-4.5,0-6.9,1.9-6.9,6.4c0,10.3-0.1,20.7,0,31
			c0,4.5,2.5,6.7,6.9,6.7c13.5,0.2,27,0.6,40.4,0.6c14.2,0,28.5-0.4,42.8-0.6c9.9-0.1,11.5-1.5,11.5-11.6
			C234.6,210.9,234.6,195.1,234.6,179.3z M66,55.1c0,0.1,0,0.2,0,0.4c15.7,0,31.3,0,47,0c3.8,0,7.7-0.6,7.8-5.1
			c0.4-11.8,0.2-23.6,0-35.4c0-3.4-2.4-4.8-5.8-4.9c-6.1-0.1-12.3-0.6-18.4-0.7c-12.6-0.1-25.2-0.1-37.8,0
			C45.5,9.6,32,9.9,18.6,10.1c-6.1,0.1-7.1,1.1-7.3,7.4C11.1,27,11,36.5,10.9,46c0,7.3,1.4,9,8.6,9.1C35,55.2,50.5,55.1,66,55.1z
			 M183.3,55.5c14.2,0,28.3,0,42.5,0c6.4,0,8.2-1.2,8.4-7.7c0.3-10.6,0.1-21.3-0.2-31.9c-0.1-3.5-1.9-5.7-6-5.8
			C218,10,208,9.4,198,9.4c-19.3,0.1-38.6,0.4-57.9,0.7c-6.3,0.1-7.2,0.9-7.3,7.3c-0.1,9.5,0,19,0,28.5c0,8.5,1.1,9.6,9.4,9.6
			C156,55.5,169.6,55.5,183.3,55.5z M66.5,96.4C66.5,96.4,66.5,96.4,66.5,96.4c15.7,0,31.3-0.1,47,0.1c4.9,0,7.1-2.2,7.4-6.7
			c0.3-5.6,0.5-11.3,0.5-17c0-5.6-1.9-7.5-7.5-7.5c-27.3-0.1-54.6-0.1-81.9-0.1c-4.6,0-9.3,0.3-14,0.5c-3.9,0.1-6.3,1.7-6.4,5.9
			c-0.1,5.2-0.3,10.3-0.2,15.5c0.1,7.5,2,9.4,9.6,9.4C36.2,96.4,51.3,96.4,66.5,96.4z M132,81.4c0.1,0,0.1,0,0.2,0
			c0,2.3-0.1,4.7,0,7c0.2,5.9,1.9,7.9,7.7,7.9c28.6,0.1,57.2,0.1,85.8,0c6.2,0,8.5-2.7,8.7-9.1c0.1-4.3,0.2-8.7,0.2-13
			c0-6.4-2.7-9-9.1-8.9c-4.2,0.1-8.3,0.2-12.5,0.1c-24.6-0.1-49.2-0.2-73.9-0.3c-3.8,0-6.4,1.6-6.6,5.8
			C132.4,74.5,132.2,78,132,81.4z M78.8,150.9c0,0.1,0,0.3,0,0.4c-11.8,0-23.6,0.3-35.4-0.1c-5.2-0.2-7,2.1-7.1,6.6
			c-0.2,6.3-0.4,12.6-0.4,18.9c0,5.4,1.7,7.3,7.2,7.3c23.9,0.2,47.9,0.1,71.8,0.2c4,0,6-2.1,6.1-5.7c0.3-7.3,0.3-14.6,0.2-21.9
			c-0.1-3.6-2-5.8-6-5.7C103.1,150.9,90.9,150.9,78.8,150.9z M171,184.2c0,0.1,0,0.3,0,0.5c10.1,0,20.3-0.1,30.4,0.1
			c4.9,0.1,7.2-2.4,7.4-6.8c0.3-6.8,0.3-13.6,0.1-20.5c-0.1-4.1-2.1-6.4-6.6-6.2c-5.3,0.2-10.6,0.1-16,0
			c-14.8-0.1-29.6-0.4-44.4-0.5c-7.5-0.1-9.1,1.6-9.2,9c0,5.3,0,10.6,0,16c0.1,6.7,1.6,8.3,8.2,8.4C151.1,184.2,161,184.2,171,184.2
			z"/>
</svg>
